<svg xmlns="http://www.w3.org/2000/svg" viewBox="0 0 280 40" fill="none">
  <!-- National emblem — stylised falcon silhouette -->
  <g transform="translate(0,2)">
    <!-- Falcon body -->
    <path d="M18 4c-1.5 0-3 .8-3.8 2.2C13 8 12.5 10.5 13 13c.4 2 1.4 3.8 2.8 5.2l2.2 2v5.8c0 1 .2 2 .6 2.9l1 2.1h-3.2c-.4 0-.7.3-.7.7s.3.7.7.7h7.2c.4 0 .7-.3.7-.7s-.3-.7-.7-.7h-3.2l1-2.1c.4-.9.6-1.9.6-2.9v-5.8l2.2-2c1.4-1.4 2.4-3.2 2.8-5.2.5-2.5 0-5-1.2-6.8C24.9 4.8 23.5 4 22 4h-4z" fill="#1B1D21"/>
    <!-- Falcon head crest -->
    <path d="M20 2c-.8 0-1.5.5-1.8 1.2-.2.5-.2 1 0 1.5.3.6.8 1 1.4 1.1h.8c.6-.1 1.1-.5 1.4-1.1.2-.5.2-1 0-1.5C21.5 2.5 20.8 2 20 2z" fill="#1B1D21"/>
    <!-- Wings spread -->
    <path d="M13 13c-1.5 1-3.5 1.5-5.5 1.5-1.5 0-3-.3-4.2-.8-.3-.1-.6 0-.7.3-.1.3 0 .6.3.7 1.4.6 3 1 4.6 1 2.2 0 4.4-.6 6.1-1.7l-.6-1z" fill="#1B1D21"/>
    <path d="M27 13c1.5 1 3.5 1.5 5.5 1.5 1.5 0 3-.3 4.2-.8.3-.1.6 0 .7.3.1.3 0 .6-.3.7-1.4.6-3 1-4.6 1-2.2 0-4.4-.6-6.1-1.7l.6-1z" fill="#1B1D21"/>
    <!-- Emblem base -->
    <ellipse cx="20" cy="28" rx="4" ry="1.5" fill="#92722A" opacity="0.6"/>
  </g>

  <!-- Vertical gold accent line -->
  <rect x="46" y="6" width="1.5" height="28" rx="0.75" fill="#92722A"/>

  <!-- Product identity -->
  <text x="56" y="19" fill="#1B1D21" font-family="Inter, 'Helvetica Neue', ui-sans-serif, system-ui, sans-serif" font-size="13" font-weight="700" letter-spacing="0.5">
    Strategy Intelligence
  </text>
  <text x="56" y="31" fill="#1B1D21" font-family="Roboto, ui-sans-serif, system-ui, sans-serif" font-size="9" font-weight="400" letter-spacing="0.3" opacity="0.5">
    Evidence-led decision support
  </text>
</svg>
